<svg xmlns="http://www.w3.org/2000/svg" width="775.778" height="230" viewBox="0 0 775.778 230">
  <g id="Grupo_12" data-name="Grupo 12" transform="translate(-80 -389)">
    <g id="Grupo_8" data-name="Grupo 8" transform="translate(9 10)">
      <g id="Grupo_7" data-name="Grupo 7">
        <g id="Grupo_5" data-name="Grupo 5" transform="translate(47 334.585)">
          <path id="Caminho_10" data-name="Caminho 10" d="M26.358,0q-5.539,0-8.691-3.056t-3.151-8.595V-123q0-5.539,3.151-8.6t8.691-3.056H64.176q33.043,0,51.283,17.667T133.7-67.423q0,32.088-18.241,49.755T64.176,0Zm36.29-20.055q46.413,0,46.413-47.368,0-47.177-46.413-47.177H39.155v94.545Zm97.983,21.2a12.344,12.344,0,0,1-8.5-2.961q-3.343-2.961-3.343-8.5V-84.04q0-5.539,3.343-8.4a12.6,12.6,0,0,1,8.5-2.865,12.972,12.972,0,0,1,8.6,2.865q3.438,2.865,3.438,8.4v73.726q0,5.539-3.438,8.5A12.706,12.706,0,0,1,160.631,1.146Zm0-113.454q-6.494,0-10.314-3.534a12.028,12.028,0,0,1-3.82-9.263,11.73,11.73,0,0,1,3.82-9.168q3.82-3.438,10.314-3.438a14.921,14.921,0,0,1,10.218,3.438,11.594,11.594,0,0,1,3.916,9.168,12.028,12.028,0,0,1-3.82,9.263Q167.125-112.308,160.631-112.308Zm82.7,16.617a39.5,39.5,0,0,1,21.583,5.921,39.785,39.785,0,0,1,14.612,16.808q5.253,10.887,5.253,25.4T279.529-21.87A40.529,40.529,0,0,1,264.822-4.584a38.71,38.71,0,0,1-21.488,6.112,36.606,36.606,0,0,1-18.049-4.393,29.9,29.9,0,0,1-12.128-12.224v4.775A10.741,10.741,0,0,1,209.909-2.1a12.03,12.03,0,0,1-8.6,3.056,11.69,11.69,0,0,1-8.5-3.056,10.912,10.912,0,0,1-3.152-8.213V-124.532a10.356,10.356,0,0,1,3.343-8.022,12.377,12.377,0,0,1,8.69-3.056,12.516,12.516,0,0,1,8.6,2.865,9.907,9.907,0,0,1,3.247,7.831v45.076a28.556,28.556,0,0,1,12.033-11.746A37.67,37.67,0,0,1,243.334-95.691ZM237.031-17Q248.3-17,254.6-25.021t6.3-22.538q0-14.325-6.208-21.965t-17.667-7.64q-11.46,0-17.668,7.736t-6.207,22.251q0,14.516,6.207,22.347T237.031-17ZM350.485-95.691a39.5,39.5,0,0,1,21.583,5.921,39.785,39.785,0,0,1,14.611,16.808q5.253,10.887,5.253,25.4T386.679-21.87A40.529,40.529,0,0,1,371.972-4.584a38.71,38.71,0,0,1-21.487,6.112,36.606,36.606,0,0,1-18.049-4.393,29.9,29.9,0,0,1-12.129-12.224v4.775A10.741,10.741,0,0,1,317.06-2.1a12.03,12.03,0,0,1-8.6,3.056,11.69,11.69,0,0,1-8.5-3.056,10.912,10.912,0,0,1-3.151-8.213V-124.532a10.356,10.356,0,0,1,3.342-8.022,12.377,12.377,0,0,1,8.69-3.056,12.516,12.516,0,0,1,8.6,2.865,9.907,9.907,0,0,1,3.247,7.831v45.076a28.555,28.555,0,0,1,12.033-11.746A37.67,37.67,0,0,1,350.485-95.691ZM344.182-17q11.269,0,17.572-8.022t6.3-22.538q0-14.325-6.207-21.965t-17.668-7.64q-11.46,0-17.667,7.736t-6.208,22.251q0,14.516,6.208,22.347T344.182-17ZM415.807,1.146a12.344,12.344,0,0,1-8.5-2.961q-3.342-2.961-3.342-8.5V-124.341q0-5.539,3.342-8.4a12.6,12.6,0,0,1,8.5-2.865,12.972,12.972,0,0,1,8.6,2.865q3.438,2.865,3.438,8.4V-10.314q0,5.539-3.438,8.5A12.706,12.706,0,0,1,415.807,1.146Zm102.949-26.74a6.428,6.428,0,0,1,5.253,2.483,10.332,10.332,0,0,1,2.006,6.685q0,5.921-7.067,9.932A63.85,63.85,0,0,1,504.24-.669a60.633,60.633,0,0,1-15.662,2.2q-22.538,0-35.717-12.988T439.682-46.986a54.5,54.5,0,0,1,5.73-25.4,41.665,41.665,0,0,1,16.139-17.19,45.709,45.709,0,0,1,23.589-6.112q12.606,0,21.965,5.539A37.558,37.558,0,0,1,521.621-74.49q5.157,10.123,5.157,23.875,0,8.213-7.258,8.213H463.175q1.146,13.179,7.449,19.387t18.336,6.207a34.768,34.768,0,0,0,10.792-1.528,106.521,106.521,0,0,0,10.6-4.2Q516.082-25.594,518.756-25.594ZM485.713-78.883q-9.741,0-15.566,6.112T463.175-55.2h43.166q-.382-11.651-5.73-17.667T485.713-78.883Z" transform="translate(273 213.415)" fill="#008f8a"/>
        </g>
        <g id="Componente_1_1" data-name="Componente 1 – 1" transform="translate(71 379)">
          <circle id="Elipse_2" data-name="Elipse 2" cx="115" cy="115" r="115" fill="#008f8a"/>
        </g>
      </g>
      <path id="Caminho_1" data-name="Caminho 1" d="M16.46,3.029c4.038,0,8.045,2.244,12.447,4.795,2.66,1.539,3.909,4.652,6.023,7.023,1.051,1.171,3.735,2.585,4.024,4.381.765,4.757,4.2,7.859,4.2,12.15,0,7.144,2.383,12.067-2.022,10.636-2.126-.691-1.107-5.23-6.2-5.23-3.305,0-5.465-3.573-9.284-5.407-3.019-1.448-7.579-.972-10.941-2.77C7.143,24.563.032,20.927.032,14.847c0-4.653,3.608-6.235,5.3-8.172C7.241,4.444,8.328,3.029,16.46,3.029Z" transform="translate(138 433)" fill="#7de5e3"/>
      <path id="Caminho_2" data-name="Caminho 2" d="M36.482,3.029c-5.385,0-10.276,4.556-16.147,7.576-3.547,1.822-4.349,3.609-7.167,6.416-1.4,1.387-6.185,5.711-6.569,7.838C5.58,30.492.89,31.515.89,36.6c0,8.459-4.237,4.473,1.637,2.779,2.834-.818,2.536-3.746,9.329-3.746,4.407,0,7.287,3.139,12.378.967,3.59-1.529,10.849-.947,15.4-2.479.231-.074-1.3-.571-.816-.8,1.726-.82,4.4.468,7.515,0,3.445-.517,7.414-2.764,9.43-3.981,4.659-2.81,3.755-7.986,3.755-12.313,0-5.51-5.944-7.382-8.193-9.677C48.775,4.7,47.326,3.029,36.482,3.029Z" transform="translate(186.081 433)" fill="#7de5e3"/>
      <g id="Grupo_6" data-name="Grupo 6" transform="translate(9.414 13.917)">
        <path id="rgba_6_6_6_1_" data-name="rgba(6,6,6,1)" d="M428.6,238.741c8-1.584,8.771-.588,14.675,1.671s7.96,6.179,9.113,7.611c2.088,2.594,3.121,5.908,2.316,11.213a14.623,14.623,0,0,1-4.2,7.036c-3.464,3.286-8.284,4.356-15.122,6.843s-4.443,1.488-12.295,3.528a88.3,88.3,0,0,0-12.789,4.263,30.819,30.819,0,0,0-13.144,11.013V343.43a1.477,1.477,0,0,1-2.487.71c-1.828-1.33-1.763,2.255-1.763-47.125-5.045-6.323-7.925-11.064-12.709-11.964l-24.605-2.014a16.96,16.96,0,0,1-10.3-6.75q-2.487-2.842-1.421-9.236a17.144,17.144,0,0,1,6.75-8.881c3.125-2.034,6.524-3.169,12.208-3.347a18.378,18.378,0,0,1,5.465.673,42.559,42.559,0,0,1,5.063,1.963,44.627,44.627,0,0,1,10.3,6.395,83.766,83.766,0,0,1,6.394,8.171,41.926,41.926,0,0,1,3.908,7.46,150.869,150.869,0,0,1,7-14.632A157.77,157.77,0,0,1,412.149,248.5S420.607,240.325,428.6,238.741Zm4.152,2.647s-9.844.165-17.66,9.757c-4.861,5.966-8.879,11.174-12.154,17.9a43.838,43.838,0,0,0-4.364,13.278,57.4,57.4,0,0,1,14.92-7.815c9.428-3.434,14.622-3.255,22.793-5.92s6.53-2.31,9.89-4.738a12.774,12.774,0,0,0,4.445-5.814,14.2,14.2,0,0,0-1.346-8.137c-2.061-3.836-4.052-4.326-7.789-6.365A22.163,22.163,0,0,0,432.755,241.388ZM356.127,259.61c-2.587.942-6.813,1.774-8.906,6.668-2.352,5.581,2.2,8.945,3.732,10.1,2.842,2.132,8.4,3.156,8.4,3.156s10.647.522,18.553.726a20.831,20.831,0,0,1,12.989,5.131c-1.421-5.21-3.947-12.383-7.262-15.7a28.688,28.688,0,0,0-12.333-8.969A24.254,24.254,0,0,0,356.127,259.61Z" transform="translate(-146.809 91.516) rotate(13)" fill="#00b0ad"/>
        <path id="rgba_6_6_6_1_2" data-name="rgba(6,6,6,1)" d="M411.708,392c6.158,0,10.051.61,12.434,6.039s-5.747,32.417-10.454,31.618-8.743-32.652-8.374-34.815S411.708,392,411.708,392Z" transform="translate(-154.135 44.352) rotate(13)" fill="#00b0ad"/>
      </g>
    </g>
    <g id="Grupo_10" data-name="Grupo 10">
      <path id="Caminho_3" data-name="Caminho 3" d="M-.575,26.229s15.212-13.712,27.6-19.9a31.758,31.758,0,0,1,3.861-1.6c11.251-3.931,25.755,0,25.755,0" transform="translate(196.86 454.5)" fill="none" stroke="#00b0ad" stroke-width="1"/>
      <path id="Caminho_4" data-name="Caminho 4" d="M-.575,8.916a52.1,52.1,0,0,1,8.9-5.083,11.868,11.868,0,0,1,1.245-.41c3.628-1,8.3,0,8.3,0" transform="translate(229.177 449.614) rotate(-13)" fill="none" stroke="#00b0ad" stroke-width="1"/>
      <path id="Caminho_5" data-name="Caminho 5" d="M-.575,8.718A71.14,71.14,0,0,1,10.506,3.8c.472-.145.955-.269,1.55-.4a32.994,32.994,0,0,1,10.34,0" transform="translate(212.307 457.559) rotate(-37)" fill="none" stroke="#00b0ad" stroke-width="1"/>
      <path id="Caminho_6" data-name="Caminho 6" d="M-.575,6.3A91.885,91.885,0,0,1,9.851,3.455c.445-.084.9-.155,1.459-.229a50.3,50.3,0,0,1,9.729,0" transform="translate(202.699 467.196) rotate(-50)" fill="none" stroke="#00b0ad" stroke-width="1"/>
      <path id="Caminho_7" data-name="Caminho 7" d="M-.575,8.439A60.206,60.206,0,0,1,9.148,3.764c.415-.138.838-.255,1.36-.377a26.74,26.74,0,0,1,9.073,0" transform="translate(225.548 483.063) rotate(-142)" fill="none" stroke="#00b0ad" stroke-width="1"/>
      <path id="Caminho_8" data-name="Caminho 8" d="M-.575,9.355A100.11,100.11,0,0,1,13.77,3.9c.612-.161,1.236-.3,2.007-.44,5.848-1.078,13.386,0,13.386,0" transform="matrix(-0.866, -0.5, 0.5, -0.866, 245.04, 479.499)" fill="none" stroke="#00b0ad" stroke-width="1"/>
      <path id="Caminho_9" data-name="Caminho 9" d="M-.575,6.3A98.733,98.733,0,0,1,10.279,3.455c.463-.084.935-.155,1.518-.229a54.5,54.5,0,0,1,10.128,0" transform="translate(253.925 470.211) rotate(-154)" fill="none" stroke="#00b0ad" stroke-width="1"/>
    </g>
    <g id="Grupo_11" data-name="Grupo 11" transform="matrix(0.616, 0.788, -0.788, 0.616, 393.681, -0.434)">
      <path id="Caminho_3-2" data-name="Caminho 3" d="M-.575,18.124S11.821,9.191,21.916,5.16a29.8,29.8,0,0,1,3.146-1.045c9.168-2.561,20.987,0,20.987,0" transform="translate(207.565 454.269)" fill="none" stroke="#00b0ad" stroke-width="1"/>
      <path id="Caminho_4-2" data-name="Caminho 4" d="M-.575,8.1A42.5,42.5,0,0,1,6.756,3.716a9.465,9.465,0,0,1,1.026-.354,16.261,16.261,0,0,1,6.841,0" transform="translate(229.761 450.685) rotate(-18)" fill="none" stroke="#00b0ad" stroke-width="1"/>
      <path id="Caminho_5-2" data-name="Caminho 5" d="M-.575,8.719A65.786,65.786,0,0,1,9.928,3.8c.448-.145.9-.269,1.469-.4a25.951,25.951,0,0,1,8.7-.26c.236.03.708.128.708.128" transform="matrix(-0.766, 0.643, -0.643, -0.766, 236.21, 454.292)" fill="none" stroke="#00b0ad" stroke-width="1"/>
      <path id="Caminho_6-2" data-name="Caminho 6" d="M-.575,6.3A105.033,105.033,0,0,1,10.657,3.455c.479-.084.968-.155,1.571-.229a58.358,58.358,0,0,1,10.481,0" transform="translate(223.934 456.015) rotate(129)" fill="none" stroke="#00b0ad" stroke-width="1"/>
      <path id="Caminho_7-2" data-name="Caminho 7" d="M-.575,8.05A48.286,48.286,0,0,1,7.532,3.708a11.324,11.324,0,0,1,1.134-.35,20.048,20.048,0,0,1,7.565,0" transform="matrix(0.819, 0.574, -0.574, 0.819, 216.883, 462.829)" fill="none" stroke="#00b0ad" stroke-width="1"/>
      <path id="Caminho_8-2" data-name="Caminho 8" d="M-.575,5.71A59.272,59.272,0,0,1,6.892,3.371c.318-.069.643-.128,1.045-.189a31.365,31.365,0,0,1,6.968,0" transform="matrix(0.866, 0.5, -0.5, 0.866, 225.664, 458.282)" fill="none" stroke="#00b0ad" stroke-width="1"/>
      <path id="Caminho_9-2" data-name="Caminho 9" d="M-.575,6.3a70.915,70.915,0,0,1,8.99-2.842c.383-.084.775-.155,1.258-.229a37.433,37.433,0,0,1,8.389,0" transform="translate(238.956 452.386) rotate(27)" fill="none" stroke="#00b0ad" stroke-width="1"/>
    </g>
  </g>
</svg>
