<svg xmlns="http://www.w3.org/2000/svg" width="783" height="260" viewBox="0 0 783 260">
  <g id="Grupo_8" data-name="Grupo 8" transform="translate(-71 -355)">
    <g id="Grupo_7" data-name="Grupo 7">
      <g id="Grupo_5" data-name="Grupo 5" transform="translate(47 334.585)">
        <text id="Dibble" transform="translate(273 213.415)" fill="#05807b" font-size="191" font-family="Nunito-Bold, Nunito" font-weight="700" letter-spacing="-0.04em"><tspan x="0" y="0">Dibble</tspan></text>
      </g>
      <g id="Componente_1_1" data-name="Componente 1 – 1" transform="translate(71 379)">
        <circle id="Elipse_2" data-name="Elipse 2" cx="115" cy="115" r="115" fill="#05807b"/>
      </g>
    </g>
    <g id="Grupo_6" data-name="Grupo 6" transform="translate(9.414 13.917)">
      <path id="rgba_6_6_6_1_" data-name="rgba(6,6,6,1)" d="M428.774,238.987a33.74,33.74,0,0,1,13.692,2.052,28.9,28.9,0,0,1,9.925,6.984c2.088,2.594,3.121,5.908,2.316,11.213a14.623,14.623,0,0,1-4.2,7.036c-3.464,3.286-8.284,4.356-15.122,6.843s-4.443,1.488-12.295,3.528a88.3,88.3,0,0,0-12.789,4.263,30.819,30.819,0,0,0-13.144,11.013V343.43a1.477,1.477,0,0,1-2.487.71c-1.828-1.33-1.776-.71-1.776-50.09-5.045-6.323-9.071-7.981-13.855-8.881l-23.446-2.131a16.96,16.96,0,0,1-10.3-6.75q-2.487-2.842-1.421-9.236a17.144,17.144,0,0,1,6.75-8.881c3.125-2.034,6.469-3.092,11.961-2.825s4.47-.017,10.775,2.114a27.552,27.552,0,0,1,10.3,6.395l6.394,8.171,3.908,7.46c2.179-12.268,16.341-30.551,16.341-30.551S418.252,239.214,428.774,238.987Zm1.066,4.973c-6.158,1.421-14.744,7.184-14.744,7.184s-14.623,17.447-16.518,31.183a57.4,57.4,0,0,1,14.92-7.815c9.428-3.434,22.793-5.92,22.793-5.92l9.89-4.738,3.552-4.973c.947-4.737.634-5.607-2.03-9.337s-5.312-4.636-8.628-5.584Zm-70.864,16.6-5.159,1.878q-4.263,2.131-5.684,7.815l11.368,8.526s11.675.875,19.313,2.118,11.239,2.855,11.239,2.855a28.138,28.138,0,0,0-7.1-12.789,28.483,28.483,0,0,0-12.318-8.9A22.6,22.6,0,0,0,358.975,260.555Z" transform="translate(-146.809 91.516) rotate(13)" fill="#fff"/>
      <path id="rgba_6_6_6_1_2" data-name="rgba(6,6,6,1)" d="M411.708,392c6.158,0,10.051.61,12.434,6.039s-5.747,32.417-10.454,31.618-8.743-32.652-8.374-34.815S411.708,392,411.708,392Z" transform="translate(-154.135 44.352) rotate(13)" fill="#d3d3d3"/>
    </g>
  </g>
</svg>
