<svg xmlns="http://www.w3.org/2000/svg" width="782.631" height="230" viewBox="0 0 782.631 230">
  <g transform="translate(-87 -395)">
    <g>
      <path d="M26.358,0q-5.539,0-8.691-3.056t-3.151-8.595V-123q0-5.539,3.151-8.6t8.691-3.056H64.176q33.043,0,51.283,17.667T133.7-67.423q0,32.088-18.241,49.755T64.176,0Zm36.29-20.055q46.413,0,46.413-47.368,0-47.177-46.413-47.177H39.155v94.545Zm97.983,21.2a12.344,12.344,0,0,1-8.5-2.961q-3.343-2.961-3.343-8.5V-84.04q0-5.539,3.343-8.4a12.6,12.6,0,0,1,8.5-2.865,12.972,12.972,0,0,1,8.6,2.865q3.438,2.865,3.438,8.4v73.726q0,5.539-3.438,8.5A12.706,12.706,0,0,1,160.631,1.146Zm0-113.454q-6.494,0-10.314-3.534a12.028,12.028,0,0,1-3.82-9.263,11.73,11.73,0,0,1,3.82-9.168q3.82-3.438,10.314-3.438a14.921,14.921,0,0,1,10.218,3.438,11.594,11.594,0,0,1,3.916,9.168,12.028,12.028,0,0,1-3.82,9.263Q167.125-112.308,160.631-112.308Zm82.7,16.617a39.5,39.5,0,0,1,21.583,5.921,39.785,39.785,0,0,1,14.612,16.808q5.253,10.887,5.253,25.4T279.529-21.87A40.529,40.529,0,0,1,264.822-4.584a38.71,38.71,0,0,1-21.488,6.112,36.606,36.606,0,0,1-18.049-4.393,29.9,29.9,0,0,1-12.128-12.224v4.775A10.741,10.741,0,0,1,209.909-2.1a12.03,12.03,0,0,1-8.6,3.056,11.69,11.69,0,0,1-8.5-3.056,10.912,10.912,0,0,1-3.152-8.213V-124.532a10.356,10.356,0,0,1,3.343-8.022,12.377,12.377,0,0,1,8.69-3.056,12.516,12.516,0,0,1,8.6,2.865,9.907,9.907,0,0,1,3.247,7.831v45.076a28.556,28.556,0,0,1,12.033-11.746A37.67,37.67,0,0,1,243.334-95.691ZM237.031-17Q248.3-17,254.6-25.021t6.3-22.538q0-14.325-6.208-21.965t-17.667-7.64q-11.46,0-17.668,7.736t-6.207,22.251q0,14.516,6.207,22.347T237.031-17ZM350.485-95.691a39.5,39.5,0,0,1,21.583,5.921,39.785,39.785,0,0,1,14.611,16.808q5.253,10.887,5.253,25.4T386.679-21.87A40.529,40.529,0,0,1,371.972-4.584a38.71,38.71,0,0,1-21.487,6.112,36.606,36.606,0,0,1-18.049-4.393,29.9,29.9,0,0,1-12.129-12.224v4.775A10.741,10.741,0,0,1,317.06-2.1a12.03,12.03,0,0,1-8.6,3.056,11.69,11.69,0,0,1-8.5-3.056,10.912,10.912,0,0,1-3.151-8.213V-124.532a10.356,10.356,0,0,1,3.342-8.022,12.377,12.377,0,0,1,8.69-3.056,12.516,12.516,0,0,1,8.6,2.865,9.907,9.907,0,0,1,3.247,7.831v45.076a28.555,28.555,0,0,1,12.033-11.746A37.67,37.67,0,0,1,350.485-95.691ZM344.182-17q11.269,0,17.572-8.022t6.3-22.538q0-14.325-6.207-21.965t-17.668-7.64q-11.46,0-17.667,7.736t-6.208,22.251q0,14.516,6.208,22.347T344.182-17ZM415.807,1.146a12.344,12.344,0,0,1-8.5-2.961q-3.342-2.961-3.342-8.5V-124.341q0-5.539,3.342-8.4a12.6,12.6,0,0,1,8.5-2.865,12.972,12.972,0,0,1,8.6,2.865q3.438,2.865,3.438,8.4V-10.314q0,5.539-3.438,8.5A12.706,12.706,0,0,1,415.807,1.146Zm102.949-26.74a6.428,6.428,0,0,1,5.253,2.483,10.332,10.332,0,0,1,2.006,6.685q0,5.921-7.067,9.932A63.85,63.85,0,0,1,504.24-.669a60.633,60.633,0,0,1-15.662,2.2q-22.538,0-35.717-12.988T439.682-46.986a54.5,54.5,0,0,1,5.73-25.4,41.665,41.665,0,0,1,16.139-17.19,45.709,45.709,0,0,1,23.589-6.112q12.606,0,21.965,5.539A37.558,37.558,0,0,1,521.621-74.49q5.157,10.123,5.157,23.875,0,8.213-7.258,8.213H463.175q1.146,13.179,7.449,19.387t18.336,6.207a34.768,34.768,0,0,0,10.792-1.528,106.521,106.521,0,0,0,10.6-4.2Q516.082-25.594,518.756-25.594ZM485.713-78.883q-9.741,0-15.566,6.112T463.175-55.2h43.166q-.382-11.651-5.73-17.667T485.713-78.883Z" transform="translate(342.853 578.091)" fill="#008f8a"/>
      <g transform="translate(87 395)">
        <circle cx="115" cy="115" r="115" fill="#008f8a"/>
      </g>
    </g>
    <g transform="translate(25.414 29.917)">
      <path id="rgba_6_6_6_1_" data-name="rgba(6,6,6,1)" d="M428.6,238.741c8-1.584,8.771-.588,14.675,1.671s7.96,6.179,9.113,7.611c2.088,2.594,3.121,5.908,2.316,11.213a14.623,14.623,0,0,1-4.2,7.036c-3.464,3.286-8.284,4.356-15.122,6.843s-4.443,1.488-12.295,3.528a88.3,88.3,0,0,0-12.789,4.263,30.819,30.819,0,0,0-13.144,11.013V343.43a1.477,1.477,0,0,1-2.487.71c-1.828-1.33-1.763,2.255-1.763-47.125-5.045-6.323-7.925-11.064-12.709-11.964l-24.605-2.014a16.96,16.96,0,0,1-10.3-6.75q-2.487-2.842-1.421-9.236a17.144,17.144,0,0,1,6.75-8.881c3.125-2.034,6.524-3.169,12.208-3.347a18.378,18.378,0,0,1,5.465.673,42.559,42.559,0,0,1,5.063,1.963,44.627,44.627,0,0,1,10.3,6.395,83.766,83.766,0,0,1,6.394,8.171,41.926,41.926,0,0,1,3.908,7.46,150.869,150.869,0,0,1,7-14.632A157.77,157.77,0,0,1,412.149,248.5S420.607,240.325,428.6,238.741Zm4.152,2.647s-9.844.165-17.66,9.757c-4.861,5.966-8.879,11.174-12.154,17.9a43.838,43.838,0,0,0-4.364,13.278,57.4,57.4,0,0,1,14.92-7.815c9.428-3.434,14.622-3.255,22.793-5.92s6.53-2.31,9.89-4.738a12.774,12.774,0,0,0,4.445-5.814,14.2,14.2,0,0,0-1.346-8.137c-2.061-3.836-4.052-4.326-7.789-6.365A22.163,22.163,0,0,0,432.755,241.388ZM356.127,259.61c-2.587.942-6.813,1.774-8.906,6.668-2.352,5.581,2.2,8.945,3.732,10.1,2.842,2.132,8.4,3.156,8.4,3.156s10.647.522,18.553.726a20.831,20.831,0,0,1,12.989,5.131c-1.421-5.21-3.947-12.383-7.262-15.7a28.688,28.688,0,0,0-12.333-8.969A24.254,24.254,0,0,0,356.127,259.61Z" transform="translate(-146.809 91.516) rotate(13)" fill="#fff"/>
      <path id="rgba_6_6_6_1_2" data-name="rgba(6,6,6,1)" d="M411.708,392c6.158,0,10.051.61,12.434,6.039s-5.747,32.417-10.454,31.618-8.743-32.652-8.374-34.815S411.708,392,411.708,392Z" transform="translate(-154.135 44.352) rotate(13)" fill="#fff"/>
    </g>
  </g>
</svg>
